<?xml version="1.0" encoding="utf-8"?>
<!-- Generator: Adobe Illustrator 16.0.0, SVG Export Plug-In . SVG Version: 6.00 Build 0)  -->
<!DOCTYPE svg PUBLIC "-//W3C//DTD SVG 1.1//EN" "http://www.w3.org/Graphics/SVG/1.1/DTD/svg11.dtd">
<svg version="1.1" xmlns="http://www.w3.org/2000/svg" xmlns:xlink="http://www.w3.org/1999/xlink" x="0px" y="0px" width="612px"
	 height="792px" viewBox="0 0 612 792" enable-background="new 0 0 612 792" xml:space="preserve">
<g id="Ebene_1">
</g>
<g id="Ebene_2">
	<g>
		<path d="M49.686,423.037h19.997v2.239h-8.719v25.556h-2.479v-25.556h-8.798V423.037z"/>
		<path d="M76.933,437.074c0-9.158,2.28-14.438,10.838-14.438s10.878,5.239,10.878,14.438c0,9.559-2.279,14.158-10.878,14.158
			S76.933,446.312,76.933,437.074z M96.089,437.074c0-7.799-1.56-12.198-8.318-12.198c-6.799,0-8.279,4.359-8.279,12.198
			c0,7.879,1.36,11.918,8.279,11.918S96.089,445.233,96.089,437.074z"/>
		<path d="M116.463,438.274l-4.839,0.08v12.478h-2.479v-27.795h2.479v13.117l4.799-0.12l7.719-12.997h2.839l-8.398,13.957
			l8.918,13.838h-2.959L116.463,438.274z"/>
		<path d="M146.462,450.832h-2.479v-11.758l-8.918-16.037h2.759l7.399,13.478l7.359-13.478h2.799l-8.918,16.037V450.832z"/>
		<path d="M162.132,437.074c0-9.158,2.28-14.438,10.838-14.438s10.878,5.239,10.878,14.438c0,9.559-2.279,14.158-10.878,14.158
			S162.132,446.312,162.132,437.074z M181.289,437.074c0-7.799-1.56-12.198-8.318-12.198c-6.799,0-8.279,4.359-8.279,12.198
			c0,7.879,1.36,11.918,8.279,11.918S181.289,445.233,181.289,437.074z"/>
		<path d="M208.891,423.037h4.879l11.638,25.596h0.92v-25.596h2.439v27.795h-4.799l-11.718-25.556h-0.88v25.556h-2.479V423.037z"/>
		<path d="M240.223,423.037H256.9v2.239h-14.198v10.318H254.5v2.199h-11.798v10.839H256.9v2.199h-16.677V423.037z"/>
		<path d="M266.734,423.037h2.479v27.795h-2.479V423.037z"/>
		<path d="M291.696,436.794h7.559v13.438c-1.08,0.239-6.039,1-8.919,1c-8.398,0-10.638-5.279-10.638-14.198
			c0-9.038,2.2-14.397,10.599-14.397c4.199,0,8.958,1.04,8.958,1.04l-0.12,2.119c0,0-4.999-0.92-8.639-0.92
			c-6.799,0-8.239,4.279-8.239,12.158c0,7.799,1.44,11.958,8.199,11.958c2.08,0,5.039-0.399,6.359-0.64v-9.358h-5.119V436.794z"/>
		<path d="M327.566,437.994h-15.077v12.838h-2.479v-27.795h2.479v12.758h15.077v-12.758h2.439v27.795h-2.439V437.994z"/>
		<path d="M351.339,423.037c5.399,0,8.199,2.159,8.199,6.998c0,3.72-1.44,5.52-3.68,6.479c2.439,0.76,4.6,2.479,4.6,6.599
			c0,5.919-3.359,7.719-8.519,7.719h-10.479v-27.795H351.339z M343.94,425.236v10.358h7.679c3.8,0,5.399-1.8,5.399-5.399
			c0-3.439-1.88-4.959-5.76-4.959H343.94z M343.94,437.754v10.879h7.959c3.599,0,6.039-1.2,6.039-5.6
			c0-4.839-4.199-5.279-6.279-5.279H343.94z"/>
		<path d="M369.788,437.074c0-9.158,2.28-14.438,10.838-14.438c8.559,0,10.879,5.239,10.879,14.438
			c0,9.559-2.28,14.158-10.879,14.158C372.028,451.232,369.788,446.312,369.788,437.074z M388.945,437.074
			c0-7.799-1.56-12.198-8.319-12.198c-6.799,0-8.278,4.359-8.278,12.198c0,7.879,1.36,11.918,8.278,11.918
			C387.545,448.992,388.945,445.233,388.945,437.074z"/>
		<path d="M404.479,439.874v10.958H402v-27.795h10.198c5.719,0,8.639,2.479,8.639,8.238c0,4.199-1.64,7.119-5.359,8.118
			l5.719,11.438h-2.759l-5.479-10.958H404.479z M412.198,425.236h-7.719v12.438h7.719c4.52,0,6.079-2.639,6.079-6.358
			C418.277,427.156,416.357,425.236,412.198,425.236z"/>
		<path d="M448.608,437.994h-15.077v12.838h-2.479v-27.795h2.479v12.758h15.077v-12.758h2.439v27.795h-2.439V437.994z"/>
		<path d="M461.579,437.074c0-9.158,2.28-14.438,10.838-14.438c8.559,0,10.879,5.239,10.879,14.438
			c0,9.559-2.28,14.158-10.879,14.158C463.819,451.232,461.579,446.312,461.579,437.074z M480.736,437.074
			c0-7.799-1.56-12.198-8.319-12.198c-6.799,0-8.278,4.359-8.278,12.198c0,7.879,1.36,11.918,8.278,11.918
			C479.336,448.992,480.736,445.233,480.736,437.074z"/>
		<path d="M492.847,437.074c0-9.158,2.28-14.438,10.838-14.438c8.559,0,10.879,5.239,10.879,14.438
			c0,9.559-2.28,14.158-10.879,14.158C495.087,451.232,492.847,446.312,492.847,437.074z M512.004,437.074
			c0-7.799-1.56-12.198-8.319-12.198c-6.799,0-8.278,4.359-8.278,12.198c0,7.879,1.36,11.918,8.278,11.918
			C510.604,448.992,512.004,445.233,512.004,437.074z"/>
		<path d="M525.058,450.832v-27.795h10.118c7.639,0,9.878,5.999,9.878,13.518c0,7.599-2.159,14.277-9.878,14.277H525.058z
			 M535.176,425.276h-7.639v23.356h7.639c5.839,0,7.318-6.039,7.318-12.078C542.494,430.596,541.015,425.276,535.176,425.276z"/>
	</g>
	<g>
		<path d="M18.965,366.508l-6.899,0.75v19.574H1.716v-50.998h10.35v22.424l6.899-0.75l8.4-21.674h11.774l-11.1,25.574l11.4,25.424
			H27.515L18.965,366.508z"/>
		<path d="M54.282,335.834h32.999v9H64.632v11.924h18.149v8.85H64.632v12.225h22.649v9H54.282V335.834z"/>
		<path d="M121.03,366.508l-6.899,0.75v19.574h-10.35v-50.998h10.35v22.424l6.899-0.75l8.4-21.674h11.774l-11.1,25.574l11.4,25.424
			H129.58L121.03,366.508z"/>
		<path d="M188.139,345.134c0,0-10.575-1.2-14.924-1.2c-5.55,0-8.175,2.025-8.175,5.4c0,3.225,2.025,4.35,10.575,7.049
			c11.024,3.525,14.399,6.601,14.399,15.075c0,11.1-7.575,16.274-17.625,16.274c-6.975,0-17.024-2.325-17.024-2.325l1.05-8.024
			c0,0,10.05,1.35,15.375,1.35c5.55,0,7.95-2.625,7.95-6.6c0-3.15-1.8-4.575-9.15-6.675c-11.475-3.3-15.824-7.2-15.824-15.374
			c0-10.575,7.05-15.149,17.399-15.149c6.825,0,16.799,2.024,16.799,2.024L188.139,345.134z"/>
		<path d="M204.347,361.633c0-17.249,5.1-26.698,21.149-26.698s21.149,9.449,21.149,26.698c0,17.25-5.1,26.1-21.149,26.1
			S204.347,378.883,204.347,361.633z M235.996,361.633c0-11.774-2.1-17.699-10.5-17.699c-8.4,0-10.5,5.925-10.5,17.699
			s2.1,17.1,10.5,17.1C233.896,378.733,235.996,373.408,235.996,361.633z"/>
		<path d="M283.351,335.834c10.274,0,15.899,3.75,15.899,13.5c0,5.774-1.575,8.699-5.625,11.249c4.35,1.875,6.6,5.024,6.6,11.625
			c0,10.199-6.375,14.624-16.574,14.624h-20.324v-50.998H283.351z M273.676,344.684v12.149h9.225c4.05,0,5.85-2.1,5.85-6.149
			c0-4.2-2.024-6-5.925-6H273.676z M273.676,365.534v12.449h9.449c4.275,0,6.6-1.275,6.6-6.3c0-4.2-2.475-6.149-6.6-6.149H273.676z"
			/>
		<path d="M314.783,361.633c0-17.249,5.1-26.698,21.149-26.698c16.049,0,21.149,9.449,21.149,26.698c0,17.25-5.101,26.1-21.149,26.1
			C319.883,387.733,314.783,378.883,314.783,361.633z M346.432,361.633c0-11.774-2.1-17.699-10.499-17.699s-10.5,5.925-10.5,17.699
			s2.101,17.1,10.5,17.1S346.432,373.408,346.432,361.633z"/>
		<path d="M371.858,361.633c0-17.249,5.1-26.698,21.149-26.698c16.049,0,21.148,9.449,21.148,26.698c0,17.25-5.1,26.1-21.148,26.1
			C376.958,387.733,371.858,378.883,371.858,361.633z M403.507,361.633c0-11.774-2.1-17.699-10.499-17.699s-10.5,5.925-10.5,17.699
			s2.101,17.1,10.5,17.1S403.507,373.408,403.507,361.633z"/>
		<path d="M448.087,366.508l-6.899,0.75v19.574h-10.35v-50.998h10.35v22.424l6.899-0.75l8.399-21.674h11.775l-11.1,25.574
			l11.399,25.424h-11.925L448.087,366.508z"/>
		<path d="M483.396,335.834h10.35v50.998h-10.35V335.834z"/>
		<path d="M512.219,335.834h17.475l12.299,41.998h0.75v-41.998h10.35v50.998h-17.024l-12.749-41.998h-0.75v41.998h-10.35V335.834z"
			/>
		<path d="M593.322,359.534h14.85v26.474c0,0-10.725,1.726-17.399,1.726c-16.649,0-20.849-9.3-20.849-26.399
			c0-18.6,5.399-26.398,20.474-26.398c7.875,0,17.774,2.1,17.774,2.1l-0.3,8.024c0,0-9-0.975-15.824-0.975
			c-8.85,0-11.475,2.925-11.475,17.249c0,13.574,1.875,17.399,11.175,17.399c3.074,0,6.225-0.3,6.225-0.3v-9.899h-4.65V359.534z"/>
	</g>
</g>
</svg>
